<?xml version="1.0" encoding="UTF-8"?><svg xmlns="http://www.w3.org/2000/svg" xmlns:xlink="http://www.w3.org/1999/xlink" height="104.5" preserveAspectRatio="xMidYMid meet" version="1.0" viewBox="0.0 0.0 375.1 104.5" width="375.1" zoomAndPan="magnify"><g id="change1_1"><path d="M369.7,91.7H5.3c-2.2,0-4,1.8-4,4s1.8,4,4,4h364.5c2.2,0,4-1.8,4-4S371.9,91.7,369.7,91.7z" fill="#EEE0D7"/></g><g id="change2_1"><path d="M369.7,90.3H5.3c-2.9,0-5.3,2.4-5.3,5.3s2.4,5.3,5.3,5.3h364.5c2.9,0,5.3-2.4,5.3-5.3S372.6,90.3,369.7,90.3 z M369.7,98.2H212.5c0.6-0.7,1-1.6,1-2.6c0-1-0.4-1.9-1-2.6h157.2c1.5,0,2.6,1.2,2.6,2.6C372.4,97.1,371.2,98.2,369.7,98.2z" fill="#010101"/></g><g id="change3_1"><path d="M209.6,104.5c-5.8,0-10.6-4.7-10.6-10.6s4.7-10.6,10.6-10.6s10.6,4.7,10.6,10.6S215.4,104.5,209.6,104.5z M209.6,86c-4.4,0-7.9,3.6-7.9,7.9s3.6,7.9,7.9,7.9s7.9-3.6,7.9-7.9S214,86,209.6,86z" fill="#141223"/></g><g id="change4_1"><circle cx="209.6" cy="94" fill="#F5D7CF" r="9.2"/></g><g id="change2_2"><path d="M266.4,29.8l-13.8-8.9c-0.6-0.4-1.4-0.2-1.8,0.4c-0.4,0.6-0.2,1.4,0.4,1.8l12.1,7.8l-12.1,7.8 c-0.6,0.4-0.8,1.2-0.4,1.8c0.3,0.4,0.7,0.6,1.1,0.6c0.2,0,0.5-0.1,0.7-0.2l13.8-8.9c0.4-0.2,0.6-0.7,0.6-1.1 C267,30.4,266.8,30,266.4,29.8z" fill="#010101"/></g><g id="change2_3"><path d="M254,29.8l-13.8-8.9c-0.4-0.3-0.9-0.3-1.3,0c-0.4,0.2-0.7,0.7-0.7,1.2v17.8c0,0.5,0.3,0.9,0.7,1.2 c0.2,0.1,0.4,0.2,0.6,0.2c0.2,0,0.5-0.1,0.7-0.2L254,32c0.4-0.2,0.6-0.7,0.6-1.1S254.4,30,254,29.8z" fill="#010101"/></g><g id="change2_4"><path d="M114.6,38.7l-12.1-7.8l12.1-7.8c0.6-0.4,0.8-1.2,0.4-1.8c-0.4-0.6-1.2-0.8-1.8-0.4l-13.8,8.9 c-0.4,0.2-0.6,0.7-0.6,1.1c0,0.4,0.2,0.9,0.6,1.1l13.8,8.9c0.2,0.1,0.5,0.2,0.7,0.2c0.4,0,0.9-0.2,1.1-0.6 C115.4,39.9,115.3,39.1,114.6,38.7z" fill="#010101"/></g><g id="change2_5"><path d="M126.9,20.8c-0.4-0.2-0.9-0.2-1.3,0l-13.8,8.9c-0.4,0.2-0.6,0.7-0.6,1.1c0,0.4,0.2,0.9,0.6,1.1l13.8,8.9 c0.2,0.1,0.5,0.2,0.7,0.2c0.2,0,0.4-0.1,0.6-0.2c0.4-0.2,0.7-0.7,0.7-1.2V22C127.6,21.5,127.4,21,126.9,20.8z" fill="#010101"/></g><g id="change3_2"><path d="M182.9,61.7c-17,0-30.9-13.8-30.9-30.9S165.9,0,182.9,0c17,0,30.9,13.8,30.9,30.9S199.9,61.7,182.9,61.7z M182.9,2.6c-15.6,0-28.2,12.7-28.2,28.2c0,15.6,12.7,28.2,28.2,28.2c15.6,0,28.2-12.7,28.2-28.2C211.1,15.3,198.5,2.6,182.9,2.6z" fill="#141223"/></g><g id="change4_2"><path d="M212.4,30.9c0-16.3-13.2-29.6-29.6-29.6s-29.6,13.2-29.6,29.6c0,16.3,13.2,29.6,29.6,29.6 S212.4,47.2,212.4,30.9z" fill="#F5D7CF"/></g><g id="change2_6"><path d="M199.2,29.8L177,15.5c-0.4-0.3-0.9-0.3-1.3,0c-0.4,0.2-0.7,0.7-0.7,1.2v28.5c0,0.5,0.3,0.9,0.7,1.2 c0.2,0.1,0.4,0.2,0.6,0.2c0.2,0,0.5-0.1,0.7-0.2L199.2,32c0.4-0.2,0.6-0.7,0.6-1.1C199.8,30.4,199.6,30,199.2,29.8z" fill="#010101"/></g></svg>